<svg width="91" height="32" viewBox="0 0 91 32" fill="none" xmlns="http://www.w3.org/2000/svg">
<path d="M8.80033 20.9199L8.78638 15.7457L6.27599 19.9576H5.04868L2.53829 15.8572V20.9199H0V11.1572H2.2733L5.70417 16.7917L9.05137 11.1572H11.3247L11.3526 20.9199H8.80033Z" fill="#2A2367"/>
<path d="M47.2837 18.786V20.9199H39.4457V11.1572H47.1024V13.2911H42.1793V14.9368H46.5167V17.0009H42.1793V18.786H47.2837Z" fill="#2A2367"/>
<path d="M59.0808 11.1572V20.9199H56.8075L52.498 15.7178V20.9199H49.7924V11.1572H52.0657L56.3752 16.3593V11.1572H59.0808Z" fill="#2A2367"/>
<path d="M62.0049 11.1572H64.7664V20.9199H62.0049V11.1572Z" fill="#2A2367"/>
<path d="M72.212 21.1151C70.7616 21.1151 69.6319 20.72 68.823 19.9297C68.0234 19.1393 67.6236 18.019 67.6236 16.5685V11.1572H70.385V16.4848C70.385 18.0469 71.0033 18.8279 72.2399 18.8279C73.4672 18.8279 74.0809 18.0469 74.0809 16.4848V11.1572H76.8005V16.5685C76.8005 18.019 76.396 19.1393 75.5871 19.9297C74.7875 20.72 73.6625 21.1151 72.212 21.1151Z" fill="#2A2367"/>
<path d="M88.4617 20.9199L88.4338 15.7457L85.9234 19.9576H84.6961L82.1997 15.8851V20.9199H79.6474V11.1572H81.9207L85.3516 16.7917L88.6988 11.1572H90.9721L91 20.9199H88.4617Z" fill="#2A2367"/>
<rect x="15.2251" y="11.041" width="4.06777" height="9.87887" fill="#6B5AF9"/>
<rect x="23.3606" y="4.06738" width="4.06777" height="23.8255" fill="#6B5AF9"/>
<rect x="31.4961" width="4.06777" height="31.961" fill="#6B5AF9"/>
</svg>
